<svg version="1.1" xmlns="http://www.w3.org/2000/svg" xmlns:xlink="http://www.w3.org/1999/xlink" xml:space="preserve">
	<defs>
        <!-- DB -->
		<symbol id="db" stroke="none" viewBox="0 0 1 1">
			<path fill-rule="nonzero" d="M0.15 0.168833 L0.149667 0.3275 C0.148833 0.393 0.305167 0.4435 0.499 0.443 S0.846667 0.391 0.848333 0.328 L0.848333 0.168667 C0.848333 0.105333 0.695333 0.057667 0.498333 0.056667 S0.1495 0.105333 0.15 0.168833 C0.191167 0.214833 0.363 0.248333 0.500333 0.248333 S0.808833 0.2185 0.848333 0.168667"></path>
			<path d="M0.15 0.417667 L0.15 0.5775 C0.15 0.640167 0.306167 0.691167 0.498333 0.691167 S0.85 0.638833 0.85 0.576333 L0.85 0.416833 C0.776667 0.468333 0.634833 0.493167 0.498333 0.493167 S0.225 0.469167 0.15 0.417667 z"></path>
			<path d="M0.15 0.669667 L0.15 0.8295 C0.15 0.892167 0.306167 0.943167 0.498333 0.943167 S0.846667 0.892167 0.846667 0.8295 L0.846667 0.669667 C0.773333 0.721167 0.634833 0.745167 0.498333 0.745167 S0.225 0.721167 0.15 0.669667 z"></path>
		</symbol>
        <!-- DB Warn -->
		<symbol id="dbwarn" stroke="none" viewBox="0 0 1 1">
			<path d="M0.707167 0.540167 C0.606833 0.540167 0.521667 0.605333 0.4915 0.6955 C0.485833 0.7125 0.482333 0.7295 0.480833 0.746167 C0.480167 0.753167 0.479833 0.760167 0.479833 0.767167 C0.479833 0.838833 0.513167 0.902833 0.565167 0.9445 C0.604167 0.975667 0.6535 0.994333 0.707167 0.994333 C0.8325 0.994333 0.9345 0.8925 0.9345 0.767167 C0.9345 0.642167 0.8325 0.540167 0.707167 0.540167 z M0.676 0.648333 L0.738333 0.648333 C0.745167 0.648333 0.750500 0.650667 0.750167 0.6575 L0.742833 0.791667 C0.7425 0.797833 0.737333 0.803500 0.731 0.803500 L0.683333 0.803500 C0.677 0.803500 0.671833 0.796333 0.6715 0.790167 L0.664167 0.658833 C0.663833 0.651833 0.669333 0.648333 0.676 0.648333 z M0.707167 0.906833 C0.682167 0.906833 0.662 0.886667 0.662 0.861667 C0.662 0.836667 0.682167 0.8165 0.707167 0.8165 C0.732167 0.8165 0.752333 0.836667 0.752333 0.861667 C0.752333 0.8865 0.732167 0.906833 0.707167 0.906833 z"></path>
			<g>
				<path d="M0.445833 0.742333 L0.445 0.742167 C0.328 0.736167 0.215 0.712 0.151667 0.6675 L0.151667 0.828667 C0.151667 0.891833 0.309833 0.943167 0.503667 0.943167 C0.507667 0.943167 0.512 0.943167 0.516 0.943167 C0.471667 0.8965 0.444667 0.833667 0.444667 0.764333 C0.444667 0.757167 0.445167 0.7495 0.445833 0.742333 z"></path>
				<path d="M0.502833 0.493167 C0.365167 0.493167 0.225 0.469 0.151667 0.417167 L0.151667 0.578333 C0.151667 0.636 0.2855 0.684 0.456167 0.691833 C0.487667 0.584 0.588 0.505167 0.706000 0.505167 C0.7615 0.505167 0.810333 0.520500 0.8525 0.550333 L0.8535 0.417167 C0.778333 0.469 0.640500 0.493167 0.502833 0.493167 z"></path>
				<path fill-rule="nonzero" d="M0.151167 0.169 L0.150833 0.327667 C0.15 0.393167 0.306500 0.443667 0.500500 0.443167 S0.848333 0.391167 0.85 0.328167 L0.85 0.168833 C0.85 0.105500 0.696833 0.057833 0.499833 0.056833 C0.302833 0.055833 0.150833 0.105500 0.151167 0.169 C0.1925 0.215 0.364333 0.2485 0.501500 0.2485 S0.81 0.218667 0.85 0.168833 "></path>
			</g>
		</symbol>
        <!-- DB Error -->
		<symbol id="dberr" stroke="none" viewBox="0 0 1 1">
			<path d="M0.706333 0.540167 C0.581167 0.540167 0.479833 0.6415 0.479833 0.766667 S0.581167 0.993333 0.706333 0.993333 S0.932833 0.892 0.932833 0.766833 S0.8315 0.540167 0.706333 0.540167 z M0.8175 0.826333 C0.821833 0.830667 0.821833 0.8375 0.8175 0.841833 L0.781333 0.877833 C0.777 0.882167 0.770167 0.882167 0.765833 0.877833 L0.706500 0.817833 L0.647 0.877833 C0.642667 0.882167 0.635833 0.882167 0.6315 0.877833 L0.595333 0.841667 C0.591 0.837333 0.591 0.830500 0.595333 0.826167 L0.655333 0.766833 L0.595333 0.707333 C0.591 0.703000 0.591 0.696167 0.595333 0.691833 L0.6315 0.655667 C0.635833 0.651333 0.642667 0.651333 0.647 0.655667 L0.706333 0.715667 L0.765833 0.655667 C0.770167 0.651333 0.777 0.651333 0.781333 0.655667 L0.8175 0.691833 C0.821833 0.696167 0.821833 0.703000 0.8175 0.707333 L0.7575 0.766667 L0.8175 0.826333 z"></path>
			<g>
				<path d="M0.445833 0.742333 L0.445 0.742167 C0.328 0.736167 0.215 0.712 0.151667 0.6675 L0.151667 0.828667 C0.151667 0.891833 0.309833 0.943167 0.503667 0.943167 C0.507667 0.943167 0.512 0.943167 0.516 0.943167 C0.471667 0.8965 0.444667 0.833667 0.444667 0.764333 C0.444667 0.757167 0.445167 0.7495 0.445833 0.742333 z"></path>
				<path d="M0.502833 0.493167 C0.365167 0.493167 0.225 0.469 0.151667 0.417167 L0.151667 0.578333 C0.151667 0.636 0.2855 0.684 0.456167 0.691833 C0.487667 0.584 0.588 0.505167 0.706000 0.505167 C0.7615 0.505167 0.810333 0.520500 0.8525 0.550333 L0.8535 0.417167 C0.778333 0.469 0.640500 0.493167 0.502833 0.493167 z"></path>
				<path fill-rule="nonzero" d="M0.151167 0.169 L0.150833 0.327667 C0.15 0.393167 0.306500 0.443667 0.500500 0.443167 S0.848333 0.391167 0.85 0.328167 L0.85 0.168833 C0.85 0.105500 0.696833 0.057833 0.499833 0.056833 C0.302833 0.055833 0.150833 0.105500 0.151167 0.169 C0.1925 0.215 0.364333 0.2485 0.501500 0.2485 S0.81 0.218667 0.85 0.168833 "></path>
			</g>
		</symbol>
        <!-- DB Check -->
		<symbol id="dbcheck" stroke="none" viewBox="0 0 1 1">
			<path d="M0.709833 0.539333 C0.583333 0.539333 0.480833 0.641167 0.480833 0.766667 S0.583333 0.994167 0.709833 0.994167 S0.938833 0.892333 0.938833 0.766667 S0.836167 0.539333 0.709833 0.539333 z M0.850667 0.718833 L0.681 0.887 L0.681 0.887 C0.675167 0.892667 0.665833 0.892667 0.660167 0.887 L0.564333 0.792 C0.5585 0.786333 0.5585 0.777 0.564333 0.771333 L0.585167 0.750667 C0.591 0.745 0.600333 0.745 0.606000 0.750667 L0.670500 0.814667 L0.808833 0.6775 C0.814667 0.671833 0.824 0.671833 0.829667 0.6775 L0.850500 0.698167 C0.856333 0.703833 0.856333 0.713167 0.850667 0.718833 z"></path>
			<g>
				<path d="M0.445833 0.742333 L0.445 0.742167 C0.328 0.736167 0.215 0.712 0.151667 0.6675 L0.151667 0.828667 C0.151667 0.891833 0.309833 0.943167 0.503667 0.943167 C0.507667 0.943167 0.512 0.943167 0.516 0.943167 C0.471667 0.8965 0.444667 0.833667 0.444667 0.764333 C0.444667 0.757167 0.445167 0.7495 0.445833 0.742333 z"></path>
				<path d="M0.502833 0.493167 C0.365167 0.493167 0.225 0.469 0.151667 0.417167 L0.151667 0.578333 C0.151667 0.636 0.2855 0.684 0.456167 0.691833 C0.487667 0.584 0.588 0.505167 0.706000 0.505167 C0.7615 0.505167 0.810333 0.520500 0.8525 0.550333 L0.8535 0.417167 C0.778333 0.469 0.640500 0.493167 0.502833 0.493167 z"></path>
				<path fill-rule="nonzero" d="M0.151167 0.169 L0.150833 0.327667 C0.15 0.393167 0.306500 0.443667 0.500500 0.443167 S0.848333 0.391167 0.85 0.328167 L0.85 0.168833 C0.85 0.105500 0.696833 0.057833 0.499833 0.056833 C0.302833 0.055833 0.150833 0.105500 0.151167 0.169 C0.1925 0.215 0.364333 0.2485 0.501500 0.2485 S0.81 0.218667 0.85 0.168833 "></path>
			</g>
		</symbol>
        <!-- Server -->
        <symbol id="server" stroke="none" viewBox="0 0 1 1">
			<path d="M0.9375 0.3125 L0.062500 0.3125 C0.027982 0.3125 0.0 0.284518 0.0 0.25 L0.0 0.125 C0.0 0.090482 0.027982 0.062500 0.062500 0.062500 L0.9375 0.062500 C0.972018 0.062500 1.0 0.090482 1.0 0.125 L1.0 0.25 C1.0 0.284518 0.972018 0.3125 0.9375 0.3125 z M0.84375 0.140625 C0.817861 0.140625 0.796875 0.161611 0.796875 0.1875 S0.817861 0.234375 0.84375 0.234375 S0.890625 0.213389 0.890625 0.1875 S0.869639 0.140625 0.84375 0.140625 z M0.71875 0.140625 C0.692861 0.140625 0.671875 0.161611 0.671875 0.1875 S0.692861 0.234375 0.71875 0.234375 S0.765625 0.213389 0.765625 0.1875 S0.744639 0.140625 0.71875 0.140625 z M0.9375 0.625 L0.062500 0.625 C0.027982 0.625 0.0 0.597018 0.0 0.5625 L0.0 0.4375 C0.0 0.402982 0.027982 0.375 0.062500 0.375 L0.9375 0.375 C0.972018 0.375 1.0 0.402982 1.0 0.4375 L1.0 0.5625 C1.0 0.597018 0.972018 0.625 0.9375 0.625 z M0.84375 0.453125 C0.817861 0.453125 0.796875 0.474111 0.796875 0.5 S0.817861 0.546875 0.84375 0.546875 S0.890625 0.525889 0.890625 0.5 S0.869639 0.453125 0.84375 0.453125 z M0.71875 0.453125 C0.692861 0.453125 0.671875 0.474111 0.671875 0.5 S0.692861 0.546875 0.71875 0.546875 S0.765625 0.525889 0.765625 0.5 S0.744639 0.453125 0.71875 0.453125 z M0.9375 0.9375 L0.062500 0.9375 C0.027982 0.9375 0.0 0.909518 0.0 0.875 L0.0 0.75 C0.0 0.715482 0.027982 0.6875 0.062500 0.6875 L0.9375 0.6875 C0.972018 0.6875 1.0 0.715482 1.0 0.75 L1.0 0.875 C1.0 0.909518 0.972018 0.9375 0.9375 0.9375 z M0.84375 0.765625 C0.817861 0.765625 0.796875 0.786611 0.796875 0.8125 S0.817861 0.859375 0.84375 0.859375 S0.890625 0.838389 0.890625 0.8125 S0.869639 0.765625 0.84375 0.765625 z M0.71875 0.765625 C0.692861 0.765625 0.671875 0.786611 0.671875 0.8125 S0.692861 0.859375 0.71875 0.859375 S0.765625 0.838389 0.765625 0.8125 S0.744639 0.765625 0.71875 0.765625 z"></path>
		</symbol>
		<!-- DB - Color -->
		<symbol id="db-color" viewBox="0 0 1 1">
			<g stroke-linejoin="round" stroke-linecap="butt" stroke-width='0.005' stroke='#B4B4B4' fill='#CCC'>
				<path fill-rule="nonzero" d="M0.15 0.168833 L0.149667 0.3275 C0.148833 0.393 0.305167 0.4435 0.499 0.443 S0.846667 0.391 0.848333 0.328 L0.848333 0.168667 C0.848333 0.105333 0.695333 0.057667 0.498333 0.056667 S0.1495 0.105333 0.15 0.168833 C0.191167 0.214833 0.363 0.248333 0.500333 0.248333 S0.808833 0.2185 0.848333 0.168667"></path>
				<path d="M0.15 0.417667 L0.15 0.5775 C0.15 0.640167 0.306167 0.691167 0.498333 0.691167 S0.85 0.638833 0.85 0.576333 L0.85 0.416833 C0.776667 0.468333 0.634833 0.493167 0.498333 0.493167 S0.225 0.469167 0.15 0.417667 z"></path>
				<path d="M0.15 0.669667 L0.15 0.8295 C0.15 0.892167 0.306167 0.943167 0.498333 0.943167 S0.846667 0.892167 0.846667 0.8295 L0.846667 0.669667 C0.773333 0.721167 0.634833 0.745167 0.498333 0.745167 S0.225 0.721167 0.15 0.669667 z"></path>
			</g>
		</symbol>
        <!-- DB Warn - Color -->
		<symbol id="dbwarn-color" viewBox="0 0 1 1">
			<g stroke-linejoin="round" stroke-linecap="butt" stroke-width='0.005'>
				<path fill='#f8d56a' stroke='#c39409' d="M0.707167 0.540167 C0.606833 0.540167 0.521667 0.605333 0.4915 0.6955 C0.485833 0.7125 0.482333 0.7295 0.480833 0.746167 C0.480167 0.753167 0.479833 0.760167 0.479833 0.767167 C0.479833 0.838833 0.513167 0.902833 0.565167 0.9445 C0.604167 0.975667 0.6535 0.994333 0.707167 0.994333 C0.8325 0.994333 0.9345 0.8925 0.9345 0.767167 C0.9345 0.642167 0.8325 0.540167 0.707167 0.540167 z M0.676 0.648333 L0.738333 0.648333 C0.745167 0.648333 0.750500 0.650667 0.750167 0.6575 L0.742833 0.791667 C0.7425 0.797833 0.737333 0.803500 0.731 0.803500 L0.683333 0.803500 C0.677 0.803500 0.671833 0.796333 0.6715 0.790167 L0.664167 0.658833 C0.663833 0.651833 0.669333 0.648333 0.676 0.648333 z M0.707167 0.906833 C0.682167 0.906833 0.662 0.886667 0.662 0.861667 C0.662 0.836667 0.682167 0.8165 0.707167 0.8165 C0.732167 0.8165 0.752333 0.836667 0.752333 0.861667 C0.752333 0.8865 0.732167 0.906833 0.707167 0.906833 z"></path>
				<g stroke='#B4B4B4' fill='#CCC'>
					<path d="M0.445833 0.742333 L0.445 0.742167 C0.328 0.736167 0.215 0.712 0.151667 0.6675 L0.151667 0.828667 C0.151667 0.891833 0.309833 0.943167 0.503667 0.943167 C0.507667 0.943167 0.512 0.943167 0.516 0.943167 C0.471667 0.8965 0.444667 0.833667 0.444667 0.764333 C0.444667 0.757167 0.445167 0.7495 0.445833 0.742333 z"></path>
					<path d="M0.502833 0.493167 C0.365167 0.493167 0.225 0.469 0.151667 0.417167 L0.151667 0.578333 C0.151667 0.636 0.2855 0.684 0.456167 0.691833 C0.487667 0.584 0.588 0.505167 0.706000 0.505167 C0.7615 0.505167 0.810333 0.520500 0.8525 0.550333 L0.8535 0.417167 C0.778333 0.469 0.640500 0.493167 0.502833 0.493167 z"></path>
					<path fill-rule="nonzero" d="M0.151167 0.169 L0.150833 0.327667 C0.15 0.393167 0.306500 0.443667 0.500500 0.443167 S0.848333 0.391167 0.85 0.328167 L0.85 0.168833 C0.85 0.105500 0.696833 0.057833 0.499833 0.056833 C0.302833 0.055833 0.150833 0.105500 0.151167 0.169 C0.1925 0.215 0.364333 0.2485 0.501500 0.2485 S0.81 0.218667 0.85 0.168833 "></path>
				</g>
			</g>
		</symbol>
        <!-- DB Error - Color -->
		<symbol id="dberr-color" viewBox="0 0 1 1">
			<g stroke-linejoin="round" stroke-linecap="butt" stroke-width='0.005'>
				<path fill='#f44242' stroke='#910808' d="M0.706333 0.540167 C0.581167 0.540167 0.479833 0.6415 0.479833 0.766667 S0.581167 0.993333 0.706333 0.993333 S0.932833 0.892 0.932833 0.766833 S0.8315 0.540167 0.706333 0.540167 z M0.8175 0.826333 C0.821833 0.830667 0.821833 0.8375 0.8175 0.841833 L0.781333 0.877833 C0.777 0.882167 0.770167 0.882167 0.765833 0.877833 L0.706500 0.817833 L0.647 0.877833 C0.642667 0.882167 0.635833 0.882167 0.6315 0.877833 L0.595333 0.841667 C0.591 0.837333 0.591 0.830500 0.595333 0.826167 L0.655333 0.766833 L0.595333 0.707333 C0.591 0.703000 0.591 0.696167 0.595333 0.691833 L0.6315 0.655667 C0.635833 0.651333 0.642667 0.651333 0.647 0.655667 L0.706333 0.715667 L0.765833 0.655667 C0.770167 0.651333 0.777 0.651333 0.781333 0.655667 L0.8175 0.691833 C0.821833 0.696167 0.821833 0.703000 0.8175 0.707333 L0.7575 0.766667 L0.8175 0.826333 z"></path>
				<g stroke='#B4B4B4' fill='#CCC'>
					<path d="M0.445833 0.742333 L0.445 0.742167 C0.328 0.736167 0.215 0.712 0.151667 0.6675 L0.151667 0.828667 C0.151667 0.891833 0.309833 0.943167 0.503667 0.943167 C0.507667 0.943167 0.512 0.943167 0.516 0.943167 C0.471667 0.8965 0.444667 0.833667 0.444667 0.764333 C0.444667 0.757167 0.445167 0.7495 0.445833 0.742333 z"></path>
					<path d="M0.502833 0.493167 C0.365167 0.493167 0.225 0.469 0.151667 0.417167 L0.151667 0.578333 C0.151667 0.636 0.2855 0.684 0.456167 0.691833 C0.487667 0.584 0.588 0.505167 0.706000 0.505167 C0.7615 0.505167 0.810333 0.520500 0.8525 0.550333 L0.8535 0.417167 C0.778333 0.469 0.640500 0.493167 0.502833 0.493167 z"></path>
					<path fill-rule="nonzero" d="M0.151167 0.169 L0.150833 0.327667 C0.15 0.393167 0.306500 0.443667 0.500500 0.443167 S0.848333 0.391167 0.85 0.328167 L0.85 0.168833 C0.85 0.105500 0.696833 0.057833 0.499833 0.056833 C0.302833 0.055833 0.150833 0.105500 0.151167 0.169 C0.1925 0.215 0.364333 0.2485 0.501500 0.2485 S0.81 0.218667 0.85 0.168833 "></path>
				</g>
			</g>
		</symbol>
        <!-- DB Checker - Color -->
		<symbol id="dbcheck-color" viewBox="0 0 1 1">
			<g stroke-linejoin="round" stroke-linecap="butt" stroke-width='0.005'>
				<path fill='#4da838' stroke='#347326' d="M0.709833 0.539333 C0.583333 0.539333 0.480833 0.641167 0.480833 0.766667 S0.583333 0.994167 0.709833 0.994167 S0.938833 0.892333 0.938833 0.766667 S0.836167 0.539333 0.709833 0.539333 z M0.850667 0.718833 L0.681 0.887 L0.681 0.887 C0.675167 0.892667 0.665833 0.892667 0.660167 0.887 L0.564333 0.792 C0.5585 0.786333 0.5585 0.777 0.564333 0.771333 L0.585167 0.750667 C0.591 0.745 0.600333 0.745 0.606000 0.750667 L0.670500 0.814667 L0.808833 0.6775 C0.814667 0.671833 0.824 0.671833 0.829667 0.6775 L0.850500 0.698167 C0.856333 0.703833 0.856333 0.713167 0.850667 0.718833 z"></path>
				<g stroke='#B4B4B4' fill='#CCC'>
					<path d="M0.445833 0.742333 L0.445 0.742167 C0.328 0.736167 0.215 0.712 0.151667 0.6675 L0.151667 0.828667 C0.151667 0.891833 0.309833 0.943167 0.503667 0.943167 C0.507667 0.943167 0.512 0.943167 0.516 0.943167 C0.471667 0.8965 0.444667 0.833667 0.444667 0.764333 C0.444667 0.757167 0.445167 0.7495 0.445833 0.742333 z"></path>
					<path d="M0.502833 0.493167 C0.365167 0.493167 0.225 0.469 0.151667 0.417167 L0.151667 0.578333 C0.151667 0.636 0.2855 0.684 0.456167 0.691833 C0.487667 0.584 0.588 0.505167 0.706000 0.505167 C0.7615 0.505167 0.810333 0.520500 0.8525 0.550333 L0.8535 0.417167 C0.778333 0.469 0.640500 0.493167 0.502833 0.493167 z"></path>
					<path fill-rule="nonzero" d="M0.151167 0.169 L0.150833 0.327667 C0.15 0.393167 0.306500 0.443667 0.500500 0.443167 S0.848333 0.391167 0.85 0.328167 L0.85 0.168833 C0.85 0.105500 0.696833 0.057833 0.499833 0.056833 C0.302833 0.055833 0.150833 0.105500 0.151167 0.169 C0.1925 0.215 0.364333 0.2485 0.501500 0.2485 S0.81 0.218667 0.85 0.168833 "></path>
				</g>
			</g>
		</symbol>
        <!-- Server - Color -->
        <symbol id="server-color" viewBox="0 0 1 1">
			<g stroke-linejoin="round" stroke-linecap="butt" stroke-width='0.005' stroke='#B4B4B4' fill='#CCC'>
                <path d="M0.9375 0.3125 L0.062500 0.3125 C0.027982 0.3125 0.0 0.284518 0.0 0.25 L0.0 0.125 C0.0 0.090482 0.027982 0.062500 0.062500 0.062500 L0.9375 0.062500 C0.972018 0.062500 1.0 0.090482 1.0 0.125 L1.0 0.25 C1.0 0.284518 0.972018 0.3125 0.9375 0.3125 z M0.84375 0.140625 C0.817861 0.140625 0.796875 0.161611 0.796875 0.1875 S0.817861 0.234375 0.84375 0.234375 S0.890625 0.213389 0.890625 0.1875 S0.869639 0.140625 0.84375 0.140625 z M0.71875 0.140625 C0.692861 0.140625 0.671875 0.161611 0.671875 0.1875 S0.692861 0.234375 0.71875 0.234375 S0.765625 0.213389 0.765625 0.1875 S0.744639 0.140625 0.71875 0.140625 z M0.9375 0.625 L0.062500 0.625 C0.027982 0.625 0.0 0.597018 0.0 0.5625 L0.0 0.4375 C0.0 0.402982 0.027982 0.375 0.062500 0.375 L0.9375 0.375 C0.972018 0.375 1.0 0.402982 1.0 0.4375 L1.0 0.5625 C1.0 0.597018 0.972018 0.625 0.9375 0.625 z M0.84375 0.453125 C0.817861 0.453125 0.796875 0.474111 0.796875 0.5 S0.817861 0.546875 0.84375 0.546875 S0.890625 0.525889 0.890625 0.5 S0.869639 0.453125 0.84375 0.453125 z M0.71875 0.453125 C0.692861 0.453125 0.671875 0.474111 0.671875 0.5 S0.692861 0.546875 0.71875 0.546875 S0.765625 0.525889 0.765625 0.5 S0.744639 0.453125 0.71875 0.453125 z M0.9375 0.9375 L0.062500 0.9375 C0.027982 0.9375 0.0 0.909518 0.0 0.875 L0.0 0.75 C0.0 0.715482 0.027982 0.6875 0.062500 0.6875 L0.9375 0.6875 C0.972018 0.6875 1.0 0.715482 1.0 0.75 L1.0 0.875 C1.0 0.909518 0.972018 0.9375 0.9375 0.9375 z M0.84375 0.765625 C0.817861 0.765625 0.796875 0.786611 0.796875 0.8125 S0.817861 0.859375 0.84375 0.859375 S0.890625 0.838389 0.890625 0.8125 S0.869639 0.765625 0.84375 0.765625 z M0.71875 0.765625 C0.692861 0.765625 0.671875 0.786611 0.671875 0.8125 S0.692861 0.859375 0.71875 0.859375 S0.765625 0.838389 0.765625 0.8125 S0.744639 0.765625 0.71875 0.765625 z"></path>
            </g>
		</symbol>
        <!-- Sadface 404 Error -->
        <symbol id='sadface404' viewBox="0 0 234 191">
            <g>
                <path fill-rule="evenodd" fill="#bcccd0" d="M8.969,0.969H226a8,8,0,0,1,8,8v174a8,8,0,0,1-8,8H8.969a8,8,0,0,1-8-8v-174A8,8,0,0,1,8.969.969Zm3.656,24.082H222.439A5.557,5.557,0,0,1,228,30.609V179.445A5.558,5.558,0,0,1,222.439,185l-209.814.029a5.558,5.558,0,0,1-5.558-5.558V30.609A5.558,5.558,0,0,1,12.625,25.051Z"></path>
                <path fill="#c9d6d9" d="M61.061,77.811,91.166,63.453m48.56,17.941a13.431,13.431,0,1,0,23.113,9.484,0.2,0.2,0,0,0-.24-0.236c-8.483-.12-16.595-3.987-22.382-9.115C139.953,81.176,139.779,81.339,139.726,81.394Zm-45.71,0A13.431,13.431,0,1,1,70.9,90.877a0.2,0.2,0,0,1,.24-0.236c8.483-.12,16.6-3.987,22.382-9.115C93.789,81.176,93.963,81.339,94.016,81.394ZM94.1,143.616a2.779,2.779,0,0,1-2.779-2.779c0-1.1,0-1.655,3.946-4.529a44.324,44.324,0,0,1,8.112-4.674c9.453-4.158,23.786-6.3,38.375,7.078a2.779,2.779,0,0,1-3.757,4.1c-21.056-19.313-41.185-.714-41.908-0.03A2.772,2.772,0,0,1,94.1,143.616Zm73.484-59.6c-9.153,0-24.692-8.041-27.5-14.961a2.779,2.779,0,0,1,5.149-2.092c2.082,5.124,18.341,12.863,23.832,11.341a2.779,2.779,0,1,1,1.483,5.356A11.165,11.165,0,0,1,167.583,84.013Zm-101.192,0a11.172,11.172,0,0,1-2.96-.356A2.779,2.779,0,0,1,64.914,78.3c5.493,1.52,21.749-6.217,23.831-11.341a2.779,2.779,0,0,1,5.149,2.092C91.083,75.972,75.545,84.013,66.391,84.013Z"></path>
                <g fill="#FFF">
                    <ellipse cx="14.453" cy="13.734" rx="4.672" ry="4.672"></ellipse>
                    <ellipse cx="28.359" cy="13.734" rx="4.672" ry="4.672"></ellipse>
                    <circle cx="42.234" cy="13.734" r="4.672"></circle>
                    <circle cx="142.109" cy="92.891" r="4.234"></circle>
                    <circle fill="#fff" cx="92.078" cy="92.891" r="4.234"></circle>
                </g>
            </g>
        </symbol>
	</defs>
</svg>
